<?xml version="1.0" encoding="UTF-8"?>
<svg id="Layer_2" data-name="Layer 2" xmlns="http://www.w3.org/2000/svg" viewBox="0 0 1300 1300">
  <defs>
    <style>
      .cls-1 {
        fill: none;
        stroke: #fff;
        stroke-miterlimit: 10;
        stroke-width: 80px;
      }
    </style>
  </defs>
  <path class="cls-1" d="m660.14,113.7c-129.12,9.37-229.25,120.01-232.98,247.32-3.93,134.09,100.16,249.66,225.81,261.65,151.8,14.49,290.46-126.48,275.99-279.57-12.17-128.75-130.12-239.46-268.82-229.4Z"/>
  <path class="cls-1" d="m394.59,678.92c27.7,23.93,116.44,94.4,249.48,100.89,170.87,8.34,284.57-95.21,305.16-114.65,31.87,41.29,66.06,93.82,95.14,158.19,70.71,156.51,74.46,301.61,69.3,387.1-297.58.2-595.16.4-892.74.6-5.99-68.64-7.48-196.07,51.62-337.52,36.52-87.4,84.35-151.86,122.04-194.61Z"/>
</svg>