<?xml version="1.0" encoding="UTF-8"?>
<svg id="Layer_2" data-name="Layer 2" xmlns="http://www.w3.org/2000/svg" viewBox="0 0 1300 1300">
  <defs>
    <style>
      .cls-1 {
        fill: #fff;
      }
    </style>
  </defs>
  <path class="cls-1" d="m28.96,217.18c90.82-2.34,181.64-4.67,272.46-7.01,29.78,13.99,99.88,51.78,152.58,133.12,53.75,82.96,58.86,164.14,59.16,196.95,55.79,22.83,111.58,45.67,167.37,68.5,23.83,7.88,28.84,16.23,29.58,21.8.67,5.07-4.99,13.05-16.35,28.8-10.63,14.75-15.95,20.29-17.9,31.14-.62,3.44-1.55,8.58,0,14.79,3.4,13.69,14.46,15.18,14.79,23.35.34,8.46-11.26,12.51-27.25,27.25-9.92,9.14-16.75,18-21.02,24.13,5.45-.57,15.83-.89,27.25,3.89,8.08,3.38,18.67,7.82,21.02,17.9,1.99,8.55-2.66,18.14-10.9,24.91-5.53,31.71.43,51.94,7.01,64.61,6.72,12.94,14.71,19.23,19.46,35.03,5.14,17.11,2.75,32.99,0,43.59-24.34,18.71-44.61,33.19-58.38,42.82-39.87,27.85-60.54,39.5-84.85,66.17-10.83,11.88-18.58,22.57-23.35,29.58-.88,5.38-1.37,10.58-1.56,15.57-2.09,56.65,35.13,101.11,56.05,122.22-97.57-.26-195.13-.52-292.7-.78-5.16-8.86-13.68-23.15-24.91-40.48-17.63-27.19-24.1-34.3-28.02-48.26-3.02-10.75-5.37-28.54,3.11-53.71,57.97-46.66,115.93-93.33,173.9-139.99,1.28-1.91,4.78-7.68,4.37-15.7-.5-9.66-6.35-15.72-7.78-17.13-8.82-11.68-17.65-23.35-26.47-35.03-7.74-28.21-5.46-42.22-1.56-49.82.8-1.56,4.44-8.23,7.78-17.9,2.83-8.17,4.24-12.26,3.89-14.79-2.18-15.76-40.97-15.74-42.82-28.8-1.07-7.54,11.29-11.42,28.02-31.92,7.02-8.6,11.81-16.44,14.79-21.8-15.14-16.13-17.03-27.44-15.57-35.03,2.18-11.31,11.8-14.25,23.05-35.75,5.54-10.6,8.58-16.6,7.18-23.53-3.21-15.93-26.91-22.37-30.23-23.23-55.53-22.06-111.06-44.11-166.59-66.17.29-34.84-3.61-129.05-68.5-219.53-43.37-60.47-95.54-93.54-126.11-109.76Z"/>
  <path class="cls-1" d="m458.67,61.73c104.1-2.68,208.2-5.35,312.29-8.03,34.13,16.03,114.49,59.35,174.88,152.58,61.6,95.09,67.47,188.13,67.81,225.74,63.95,26.17,127.89,52.35,191.84,78.52,27.31,9.04,33.06,18.6,33.91,24.98.77,5.82-5.72,14.96-18.74,33.01-12.19,16.91-18.28,23.25-20.52,35.69-.71,3.95-1.77,9.83,0,16.95,3.9,15.69,16.57,17.4,16.95,26.77.4,9.7-12.91,14.34-31.23,31.23-11.37,10.48-19.2,20.63-24.09,27.66,6.25-.65,18.14-1.02,31.23,4.46,9.26,3.88,21.4,8.97,24.09,20.52,2.28,9.8-3.05,20.8-12.49,28.55-6.34,36.35.49,59.53,8.03,74.06,7.7,14.83,16.87,22.04,22.31,40.15,5.89,19.61,3.15,37.81,0,49.97-27.9,21.44-51.13,38.05-66.92,49.07-45.7,31.92-69.39,45.28-97.26,75.84-12.41,13.61-21.3,25.87-26.77,33.91-1.01,6.17-1.57,12.12-1.78,17.85-2.39,64.93,40.26,115.89,64.24,140.09-111.83-.3-223.66-.59-335.49-.89-5.92-10.15-15.67-26.54-28.55-46.4-20.21-31.17-27.62-39.31-32.12-55.32-3.46-12.32-6.15-32.72,3.57-61.57,66.44-53.49,132.88-106.97,199.33-160.46,1.46-2.18,5.48-8.81,5-17.99-.58-11.07-7.28-18.02-8.92-19.63-10.11-13.38-20.22-26.77-30.34-40.15-8.87-32.33-6.26-48.4-1.78-57.11.92-1.79,5.08-9.43,8.92-20.52,3.24-9.37,4.86-14.05,4.46-16.95-2.5-18.06-46.96-18.04-49.07-33.01-1.22-8.64,12.94-13.09,32.12-36.58,8.05-9.85,13.54-18.85,16.95-24.98-17.36-18.49-19.52-31.45-17.85-40.15,2.5-12.96,13.52-16.33,26.42-40.98,6.35-12.15,9.83-19.02,8.23-26.97-3.68-18.26-30.84-25.64-34.65-26.63-63.65-25.28-127.3-50.56-190.94-75.84.33-39.94-4.13-147.92-78.52-251.62-49.71-69.31-109.5-107.21-144.55-125.81Z"/>
</svg>