<?xml version="1.0" encoding="UTF-8"?>
<svg id="Layer_2" data-name="Layer 2" xmlns="http://www.w3.org/2000/svg" viewBox="0 0 1300 1300">
  <defs>
    <style>
      .cls-1 {
        fill: none;
        stroke: #fff;
        stroke-miterlimit: 10;
        stroke-width: 80px;
      }
    </style>
  </defs>
  <path class="cls-1" d="m710.56,465.94c-86.87-10.45-175.21,46.32-193.04,131.43-20.45,97.61,59.09,197.91,160.68,205.36,96.39,7.08,188.15-71.21,188.44-168.4.26-86.48-72.01-158.28-156.08-168.4Z"/>
  <path class="cls-1" d="m244.17,443.02c-57.59-6.93-116.15,30.7-127.96,87.12-13.55,64.7,39.17,131.19,106.51,136.13,63.89,4.69,124.72-47.21,124.91-111.63.17-57.33-47.74-104.92-103.46-111.63Z"/>
  <path class="cls-1" d="m1118.94,661.69c-61.79-7.43-124.62,32.95-137.31,93.48-14.54,69.43,42.03,140.77,114.29,146.07,68.56,5.03,133.83-50.65,134.03-119.78.18-61.51-51.22-112.58-111.01-119.78Z"/>
  <path class="cls-1" d="m473.16,1040.92c-51.6-6.21-104.06,27.51-114.65,78.06-12.14,57.97,35.09,117.54,95.43,121.97,57.25,4.2,111.75-42.3,111.92-100.02.15-51.36-42.77-94.01-92.7-100.02Z"/>
  <path class="cls-1" d="m853.99,914.88c-40.53-4.88-81.74,21.61-90.06,61.32-9.54,45.54,27.57,92.33,74.96,95.81,44.97,3.3,87.78-33.22,87.91-78.56.12-40.35-33.6-73.85-72.82-78.56Z"/>
  <path class="cls-1" d="m985.88,344.28c-50.64-6.09-102.13,27-112.52,76.61-11.92,56.89,34.44,115.35,93.66,119.7,56.18,4.12,109.67-41.51,109.83-98.15.15-50.41-41.97-92.26-90.97-98.15Z"/>
  <path class="cls-1" d="m760.88,105.36c-48.97-5.89-98.77,26.11-108.82,74.09-11.53,55.02,33.31,111.56,90.58,115.77,54.33,3.99,106.06-40.14,106.22-94.93.14-48.75-40.59-89.23-87.98-94.93Z"/>
  <path class="cls-1" d="m487.47,296.08c-43.44-5.23-87.61,23.16-96.52,65.72-10.22,48.81,29.54,98.95,80.34,102.68,48.19,3.54,94.07-35.61,94.22-84.2.13-43.24-36.01-79.14-78.04-84.2Z"/>
  <path class="cls-1" d="m730.78,293.54c-6.74,57.47-13.48,114.93-20.21,172.4"/>
  <line class="cls-1" x1="525.29" y1="450.2" x2="580.23" y2="501.47"/>
  <path class="cls-1" d="m517.52,597.37c-57.62-6.21-115.23-12.42-172.85-18.63"/>
  <line class="cls-1" x1="610.43" y1="782.84" x2="514.3" y2="1040.18"/>
  <line class="cls-1" x1="771.7" y1="782.84" x2="827.63" y2="917.51"/>
  <line class="cls-1" x1="863.08" y1="666.57" x2="999.55" y2="728.3"/>
  <line class="cls-1" x1="827.63" y1="529.85" x2="880.42" y2="501.47"/>
</svg>