<?xml version="1.0" encoding="UTF-8"?>
<svg id="Layer_2" data-name="Layer 2" xmlns="http://www.w3.org/2000/svg" viewBox="0 0 1300 1300">
  <defs>
    <style>
      .cls-1 {
        fill: none;
        stroke: #fff;
        stroke-miterlimit: 10;
        stroke-width: 80px;
      }
    </style>
  </defs>
  <path class="cls-1" d="m504.57,666.87c-2.26-98.55,81-177.91,175.37-172.27,95.5,5.71,165.56,96.27,153.41,187.17-10.18,76.21-76.15,137.68-153.41,141.79-86.31,4.59-166.06-63.48-175.37-156.69Z"/>
  <path class="cls-1" d="m298.38,359.13c9.87,4.82,95.14,44.67,184.33,0,101.73-50.95,112.93-163.95,113.43-170.15h133.28c.06,5.43,3.44,122.35,106.25,181.49,103.49,59.54,206.96,2.53,211.37,0,22.69,34.98,45.37,69.95,68.06,104.93-9.19,8.26-90.45,83.82-79.4,198.51,8.46,87.83,65.49,140.88,79.4,153.14-20.8,42.54-41.59,85.08-62.39,127.61-12.76-5.6-98.74-41.63-189.02,2.08-112.81,54.62-125.27,181.92-125.76,187.93h-141.79c-1.65-14.54-13.65-106.29-96.42-164.48-98.48-69.23-209.08-29.04-218.25-25.52l-59.66-134.7c4.27-2.73,97.93-64.98,93.58-177.24-3.96-102.48-86.13-156.89-93.58-161.64l76.57-121.94Z"/>
</svg>